<mxfile host="app.diagrams.net" modified="2023-06-27T08:47:21.198Z" agent="Mozilla/5.0 (Windows NT 10.0; Win64; x64) AppleWebKit/537.36 (KHTML, like Gecko) Chrome/113.0.0.0 Safari/537.36" etag="pV8pJhE9UKxqYQRd68hX" version="21.5.1" type="github">
  <diagram name="Page-1" id="e3a06f82-3646-2815-327d-82caf3d4e204">
    <mxGraphModel dx="1687" dy="889" grid="1" gridSize="10" guides="1" tooltips="1" connect="1" arrows="1" fold="1" page="1" pageScale="1.5" pageWidth="1169" pageHeight="826" background="none" math="0" shadow="0">
      <root>
        <mxCell id="0" style=";html=1;" />
        <mxCell id="1" style=";html=1;" parent="0" />
        <mxCell id="t__9qSG3ZlEFDjJ1lAGB-37" value="" style="rounded=0;whiteSpace=wrap;html=1;fillColor=#ffe6cc;strokeColor=#d79b00;" vertex="1" parent="1">
          <mxGeometry x="820" y="273.75" width="660" height="290" as="geometry" />
        </mxCell>
        <mxCell id="t__9qSG3ZlEFDjJ1lAGB-57" value="" style="rounded=0;whiteSpace=wrap;html=1;fillColor=#d5e8d4;strokeColor=#82b366;" vertex="1" parent="1">
          <mxGeometry x="0.5" y="534.38" width="350" height="285.62" as="geometry" />
        </mxCell>
        <mxCell id="t__9qSG3ZlEFDjJ1lAGB-105" style="edgeStyle=orthogonalEdgeStyle;rounded=0;orthogonalLoop=1;jettySize=auto;html=1;entryX=0.01;entryY=0.455;entryDx=0;entryDy=0;entryPerimeter=0;strokeColor=#000000;dashed=1;strokeWidth=3;" edge="1" parent="1" source="t__9qSG3ZlEFDjJ1lAGB-52" target="t__9qSG3ZlEFDjJ1lAGB-72">
          <mxGeometry relative="1" as="geometry">
            <Array as="points">
              <mxPoint x="1019" y="740" />
              <mxPoint x="1019" y="731" />
            </Array>
          </mxGeometry>
        </mxCell>
        <mxCell id="t__9qSG3ZlEFDjJ1lAGB-52" value="" style="rounded=0;whiteSpace=wrap;html=1;fillColor=#dae8fc;strokeColor=#6c8ebf;" vertex="1" parent="1">
          <mxGeometry x="470" y="640" width="260" height="200" as="geometry" />
        </mxCell>
        <mxCell id="t__9qSG3ZlEFDjJ1lAGB-56" style="edgeStyle=orthogonalEdgeStyle;rounded=0;orthogonalLoop=1;jettySize=auto;html=1;entryX=0.5;entryY=0;entryDx=0;entryDy=0;" edge="1" parent="1" source="t__9qSG3ZlEFDjJ1lAGB-36" target="t__9qSG3ZlEFDjJ1lAGB-52">
          <mxGeometry relative="1" as="geometry">
            <Array as="points">
              <mxPoint x="480" y="560" />
              <mxPoint x="600" y="560" />
            </Array>
          </mxGeometry>
        </mxCell>
        <mxCell id="t__9qSG3ZlEFDjJ1lAGB-59" style="edgeStyle=orthogonalEdgeStyle;rounded=0;orthogonalLoop=1;jettySize=auto;html=1;exitX=0.5;exitY=1;exitDx=0;exitDy=0;" edge="1" parent="1" source="t__9qSG3ZlEFDjJ1lAGB-36" target="t__9qSG3ZlEFDjJ1lAGB-57">
          <mxGeometry relative="1" as="geometry" />
        </mxCell>
        <mxCell id="t__9qSG3ZlEFDjJ1lAGB-36" value="" style="rounded=0;whiteSpace=wrap;html=1;fillColor=#ffe6cc;strokeColor=#d79b00;" vertex="1" parent="1">
          <mxGeometry x="40" y="170" width="660" height="290" as="geometry" />
        </mxCell>
        <mxCell id="6a7d8f32e03d9370-10" value="" style="verticalLabelPosition=bottom;aspect=fixed;html=1;verticalAlign=top;strokeColor=none;shape=mxgraph.citrix.xenapp_server;fillColor=#66B2FF;gradientColor=#0066CC;fontSize=14;" parent="1" vertex="1">
          <mxGeometry x="234.4999999999999" y="350" width="76" height="89" as="geometry" />
        </mxCell>
        <mxCell id="6a7d8f32e03d9370-11" value="" style="verticalLabelPosition=bottom;aspect=fixed;html=1;verticalAlign=top;strokeColor=none;shape=mxgraph.citrix.xenapp_server;fillColor=#66B2FF;gradientColor=#0066CC;fontSize=14;" parent="1" vertex="1">
          <mxGeometry x="120.49999999999989" y="350" width="76" height="89" as="geometry" />
        </mxCell>
        <mxCell id="t__9qSG3ZlEFDjJ1lAGB-19" style="edgeStyle=orthogonalEdgeStyle;rounded=0;orthogonalLoop=1;jettySize=auto;html=1;" edge="1" parent="1" source="t__9qSG3ZlEFDjJ1lAGB-2" target="t__9qSG3ZlEFDjJ1lAGB-6">
          <mxGeometry relative="1" as="geometry" />
        </mxCell>
        <mxCell id="t__9qSG3ZlEFDjJ1lAGB-20" style="edgeStyle=orthogonalEdgeStyle;rounded=0;orthogonalLoop=1;jettySize=auto;html=1;" edge="1" parent="1" source="t__9qSG3ZlEFDjJ1lAGB-2" target="t__9qSG3ZlEFDjJ1lAGB-7">
          <mxGeometry relative="1" as="geometry" />
        </mxCell>
        <mxCell id="t__9qSG3ZlEFDjJ1lAGB-21" style="edgeStyle=orthogonalEdgeStyle;rounded=0;orthogonalLoop=1;jettySize=auto;html=1;" edge="1" parent="1" source="t__9qSG3ZlEFDjJ1lAGB-2" target="t__9qSG3ZlEFDjJ1lAGB-8">
          <mxGeometry relative="1" as="geometry">
            <Array as="points">
              <mxPoint x="440" y="90" />
            </Array>
          </mxGeometry>
        </mxCell>
        <mxCell id="t__9qSG3ZlEFDjJ1lAGB-22" style="edgeStyle=orthogonalEdgeStyle;rounded=0;orthogonalLoop=1;jettySize=auto;html=1;" edge="1" parent="1" source="t__9qSG3ZlEFDjJ1lAGB-2" target="t__9qSG3ZlEFDjJ1lAGB-9">
          <mxGeometry relative="1" as="geometry" />
        </mxCell>
        <mxCell id="t__9qSG3ZlEFDjJ1lAGB-28" style="edgeStyle=orthogonalEdgeStyle;rounded=0;orthogonalLoop=1;jettySize=auto;html=1;" edge="1" parent="1" source="t__9qSG3ZlEFDjJ1lAGB-2" target="t__9qSG3ZlEFDjJ1lAGB-4">
          <mxGeometry relative="1" as="geometry" />
        </mxCell>
        <mxCell id="t__9qSG3ZlEFDjJ1lAGB-2" value="" style="verticalLabelPosition=bottom;sketch=0;aspect=fixed;html=1;verticalAlign=top;strokeColor=none;align=center;outlineConnect=0;shape=mxgraph.citrix.switch;" vertex="1" parent="1">
          <mxGeometry x="316" y="69.25" width="92" height="41.5" as="geometry" />
        </mxCell>
        <mxCell id="t__9qSG3ZlEFDjJ1lAGB-3" value="亦庄 F5&lt;br&gt;端口：60001" style="whiteSpace=wrap;html=1;" vertex="1" parent="1">
          <mxGeometry x="430" y="20" width="120" height="60" as="geometry" />
        </mxCell>
        <mxCell id="t__9qSG3ZlEFDjJ1lAGB-101" style="edgeStyle=orthogonalEdgeStyle;rounded=0;orthogonalLoop=1;jettySize=auto;html=1;" edge="1" parent="1" source="t__9qSG3ZlEFDjJ1lAGB-4" target="t__9qSG3ZlEFDjJ1lAGB-41">
          <mxGeometry relative="1" as="geometry" />
        </mxCell>
        <mxCell id="t__9qSG3ZlEFDjJ1lAGB-102" style="edgeStyle=orthogonalEdgeStyle;rounded=0;orthogonalLoop=1;jettySize=auto;html=1;" edge="1" parent="1" source="t__9qSG3ZlEFDjJ1lAGB-4" target="t__9qSG3ZlEFDjJ1lAGB-43">
          <mxGeometry relative="1" as="geometry">
            <Array as="points">
              <mxPoint x="1053" y="180" />
            </Array>
          </mxGeometry>
        </mxCell>
        <mxCell id="t__9qSG3ZlEFDjJ1lAGB-103" style="edgeStyle=orthogonalEdgeStyle;rounded=0;orthogonalLoop=1;jettySize=auto;html=1;" edge="1" parent="1" source="t__9qSG3ZlEFDjJ1lAGB-4" target="t__9qSG3ZlEFDjJ1lAGB-45">
          <mxGeometry relative="1" as="geometry" />
        </mxCell>
        <mxCell id="t__9qSG3ZlEFDjJ1lAGB-104" style="edgeStyle=orthogonalEdgeStyle;rounded=0;orthogonalLoop=1;jettySize=auto;html=1;" edge="1" parent="1" source="t__9qSG3ZlEFDjJ1lAGB-4" target="t__9qSG3ZlEFDjJ1lAGB-47">
          <mxGeometry relative="1" as="geometry" />
        </mxCell>
        <mxCell id="t__9qSG3ZlEFDjJ1lAGB-4" value="" style="verticalLabelPosition=bottom;sketch=0;aspect=fixed;html=1;verticalAlign=top;strokeColor=none;align=center;outlineConnect=0;shape=mxgraph.citrix.switch;" vertex="1" parent="1">
          <mxGeometry x="1090.5" y="160" width="88.67" height="40" as="geometry" />
        </mxCell>
        <mxCell id="t__9qSG3ZlEFDjJ1lAGB-5" value="合肥 F5&lt;br&gt;端口：60001" style="whiteSpace=wrap;html=1;" vertex="1" parent="1">
          <mxGeometry x="1188" y="90" width="120" height="60" as="geometry" />
        </mxCell>
        <mxCell id="t__9qSG3ZlEFDjJ1lAGB-31" style="edgeStyle=orthogonalEdgeStyle;rounded=0;orthogonalLoop=1;jettySize=auto;html=1;entryX=0.487;entryY=0.011;entryDx=0;entryDy=0;entryPerimeter=0;" edge="1" parent="1" source="t__9qSG3ZlEFDjJ1lAGB-6" target="6a7d8f32e03d9370-11">
          <mxGeometry relative="1" as="geometry" />
        </mxCell>
        <mxCell id="t__9qSG3ZlEFDjJ1lAGB-6" value="" style="verticalLabelPosition=bottom;sketch=0;aspect=fixed;html=1;verticalAlign=top;strokeColor=none;align=center;outlineConnect=0;shape=mxgraph.citrix.proxy_server;" vertex="1" parent="1">
          <mxGeometry x="120" y="220" width="76.5" height="90" as="geometry" />
        </mxCell>
        <mxCell id="t__9qSG3ZlEFDjJ1lAGB-32" value="" style="edgeStyle=orthogonalEdgeStyle;rounded=0;orthogonalLoop=1;jettySize=auto;html=1;" edge="1" parent="1" source="t__9qSG3ZlEFDjJ1lAGB-7" target="6a7d8f32e03d9370-10">
          <mxGeometry relative="1" as="geometry" />
        </mxCell>
        <mxCell id="t__9qSG3ZlEFDjJ1lAGB-7" value="" style="verticalLabelPosition=bottom;sketch=0;aspect=fixed;html=1;verticalAlign=top;strokeColor=none;align=center;outlineConnect=0;shape=mxgraph.citrix.proxy_server;" vertex="1" parent="1">
          <mxGeometry x="234.5" y="220" width="76.5" height="90" as="geometry" />
        </mxCell>
        <mxCell id="t__9qSG3ZlEFDjJ1lAGB-33" value="" style="edgeStyle=orthogonalEdgeStyle;rounded=0;orthogonalLoop=1;jettySize=auto;html=1;" edge="1" parent="1" source="t__9qSG3ZlEFDjJ1lAGB-8" target="t__9qSG3ZlEFDjJ1lAGB-23">
          <mxGeometry relative="1" as="geometry" />
        </mxCell>
        <mxCell id="t__9qSG3ZlEFDjJ1lAGB-8" value="" style="verticalLabelPosition=bottom;sketch=0;aspect=fixed;html=1;verticalAlign=top;strokeColor=none;align=center;outlineConnect=0;shape=mxgraph.citrix.proxy_server;" vertex="1" parent="1">
          <mxGeometry x="408" y="220" width="76.5" height="90" as="geometry" />
        </mxCell>
        <mxCell id="t__9qSG3ZlEFDjJ1lAGB-34" value="" style="edgeStyle=orthogonalEdgeStyle;rounded=0;orthogonalLoop=1;jettySize=auto;html=1;" edge="1" parent="1" source="t__9qSG3ZlEFDjJ1lAGB-9" target="t__9qSG3ZlEFDjJ1lAGB-24">
          <mxGeometry relative="1" as="geometry" />
        </mxCell>
        <mxCell id="t__9qSG3ZlEFDjJ1lAGB-9" value="" style="verticalLabelPosition=bottom;sketch=0;aspect=fixed;html=1;verticalAlign=top;strokeColor=none;align=center;outlineConnect=0;shape=mxgraph.citrix.proxy_server;" vertex="1" parent="1">
          <mxGeometry x="513.5" y="220" width="76.5" height="90" as="geometry" />
        </mxCell>
        <mxCell id="t__9qSG3ZlEFDjJ1lAGB-10" value="" style="verticalLabelPosition=bottom;sketch=0;aspect=fixed;html=1;verticalAlign=top;strokeColor=none;align=center;outlineConnect=0;shape=mxgraph.citrix.cache_server;" vertex="1" parent="1">
          <mxGeometry x="40" y="563.75" width="71" height="97.5" as="geometry" />
        </mxCell>
        <mxCell id="t__9qSG3ZlEFDjJ1lAGB-11" value="" style="verticalLabelPosition=bottom;sketch=0;aspect=fixed;html=1;verticalAlign=top;strokeColor=none;align=center;outlineConnect=0;shape=mxgraph.citrix.cache_server;" vertex="1" parent="1">
          <mxGeometry x="140" y="563.75" width="71" height="97.5" as="geometry" />
        </mxCell>
        <mxCell id="t__9qSG3ZlEFDjJ1lAGB-12" value="" style="verticalLabelPosition=bottom;sketch=0;aspect=fixed;html=1;verticalAlign=top;strokeColor=none;align=center;outlineConnect=0;shape=mxgraph.citrix.cache_server;" vertex="1" parent="1">
          <mxGeometry x="230" y="563.75" width="71" height="97.5" as="geometry" />
        </mxCell>
        <mxCell id="t__9qSG3ZlEFDjJ1lAGB-13" value="" style="verticalLabelPosition=bottom;sketch=0;aspect=fixed;html=1;verticalAlign=top;strokeColor=#d79b00;align=center;outlineConnect=0;shape=mxgraph.citrix.database;fillColor=#ffe6cc;" vertex="1" parent="1">
          <mxGeometry x="514" y="711.25" width="42.5" height="50" as="geometry" />
        </mxCell>
        <mxCell id="t__9qSG3ZlEFDjJ1lAGB-14" value="" style="verticalLabelPosition=bottom;sketch=0;aspect=fixed;html=1;verticalAlign=top;strokeColor=#d79b00;align=center;outlineConnect=0;shape=mxgraph.citrix.database;fillColor=#ffe6cc;" vertex="1" parent="1">
          <mxGeometry x="578.75" y="690" width="42.5" height="50" as="geometry" />
        </mxCell>
        <mxCell id="t__9qSG3ZlEFDjJ1lAGB-15" value="" style="verticalLabelPosition=bottom;sketch=0;aspect=fixed;html=1;verticalAlign=top;strokeColor=#d79b00;align=center;outlineConnect=0;shape=mxgraph.citrix.database;fillColor=#ffe6cc;" vertex="1" parent="1">
          <mxGeometry x="640" y="710" width="42.5" height="50" as="geometry" />
        </mxCell>
        <mxCell id="t__9qSG3ZlEFDjJ1lAGB-23" value="" style="verticalLabelPosition=bottom;aspect=fixed;html=1;verticalAlign=top;strokeColor=none;shape=mxgraph.citrix.xenapp_server;fillColor=#66B2FF;gradientColor=#0066CC;fontSize=14;" vertex="1" parent="1">
          <mxGeometry x="407.9999999999999" y="350" width="76" height="89" as="geometry" />
        </mxCell>
        <mxCell id="t__9qSG3ZlEFDjJ1lAGB-24" value="" style="verticalLabelPosition=bottom;aspect=fixed;html=1;verticalAlign=top;strokeColor=none;shape=mxgraph.citrix.xenapp_server;fillColor=#66B2FF;gradientColor=#0066CC;fontSize=14;" vertex="1" parent="1">
          <mxGeometry x="513.9999999999999" y="350" width="76" height="89" as="geometry" />
        </mxCell>
        <mxCell id="t__9qSG3ZlEFDjJ1lAGB-26" value="redis 集群&lt;br&gt;端口：6379" style="whiteSpace=wrap;html=1;" vertex="1" parent="1">
          <mxGeometry x="114.5" y="740" width="120" height="60" as="geometry" />
        </mxCell>
        <mxCell id="t__9qSG3ZlEFDjJ1lAGB-27" value="PG 集群&lt;br&gt;端口：5432" style="whiteSpace=wrap;html=1;" vertex="1" parent="1">
          <mxGeometry x="540" y="780" width="120" height="60" as="geometry" />
        </mxCell>
        <mxCell id="t__9qSG3ZlEFDjJ1lAGB-29" value="nginx服务器&lt;br&gt;端口：1443、8081" style="whiteSpace=wrap;html=1;" vertex="1" parent="1">
          <mxGeometry x="300" y="170" width="120" height="60" as="geometry" />
        </mxCell>
        <mxCell id="t__9qSG3ZlEFDjJ1lAGB-30" value="tomcat服务器&lt;br&gt;端口：8443" style="whiteSpace=wrap;html=1;" vertex="1" parent="1">
          <mxGeometry x="300" y="300" width="120" height="60" as="geometry" />
        </mxCell>
        <mxCell id="t__9qSG3ZlEFDjJ1lAGB-99" style="edgeStyle=orthogonalEdgeStyle;rounded=0;orthogonalLoop=1;jettySize=auto;html=1;entryX=0.5;entryY=0;entryDx=0;entryDy=0;" edge="1" parent="1" source="t__9qSG3ZlEFDjJ1lAGB-37" target="t__9qSG3ZlEFDjJ1lAGB-84">
          <mxGeometry relative="1" as="geometry" />
        </mxCell>
        <mxCell id="t__9qSG3ZlEFDjJ1lAGB-100" style="edgeStyle=orthogonalEdgeStyle;rounded=0;orthogonalLoop=1;jettySize=auto;html=1;" edge="1" parent="1" source="t__9qSG3ZlEFDjJ1lAGB-37" target="t__9qSG3ZlEFDjJ1lAGB-72">
          <mxGeometry relative="1" as="geometry">
            <Array as="points">
              <mxPoint x="1290" y="602" />
              <mxPoint x="1438" y="602" />
            </Array>
          </mxGeometry>
        </mxCell>
        <mxCell id="t__9qSG3ZlEFDjJ1lAGB-38" value="" style="verticalLabelPosition=bottom;aspect=fixed;html=1;verticalAlign=top;strokeColor=none;shape=mxgraph.citrix.xenapp_server;fillColor=#66B2FF;gradientColor=#0066CC;fontSize=14;" vertex="1" parent="1">
          <mxGeometry x="1014.4999999999999" y="453.75" width="76" height="89" as="geometry" />
        </mxCell>
        <mxCell id="t__9qSG3ZlEFDjJ1lAGB-39" value="" style="verticalLabelPosition=bottom;aspect=fixed;html=1;verticalAlign=top;strokeColor=none;shape=mxgraph.citrix.xenapp_server;fillColor=#66B2FF;gradientColor=#0066CC;fontSize=14;" vertex="1" parent="1">
          <mxGeometry x="900.4999999999999" y="453.75" width="76" height="89" as="geometry" />
        </mxCell>
        <mxCell id="t__9qSG3ZlEFDjJ1lAGB-40" style="edgeStyle=orthogonalEdgeStyle;rounded=0;orthogonalLoop=1;jettySize=auto;html=1;entryX=0.487;entryY=0.011;entryDx=0;entryDy=0;entryPerimeter=0;" edge="1" parent="1" source="t__9qSG3ZlEFDjJ1lAGB-41" target="t__9qSG3ZlEFDjJ1lAGB-39">
          <mxGeometry relative="1" as="geometry" />
        </mxCell>
        <mxCell id="t__9qSG3ZlEFDjJ1lAGB-41" value="" style="verticalLabelPosition=bottom;sketch=0;aspect=fixed;html=1;verticalAlign=top;strokeColor=none;align=center;outlineConnect=0;shape=mxgraph.citrix.proxy_server;" vertex="1" parent="1">
          <mxGeometry x="900" y="323.75" width="76.5" height="90" as="geometry" />
        </mxCell>
        <mxCell id="t__9qSG3ZlEFDjJ1lAGB-42" value="" style="edgeStyle=orthogonalEdgeStyle;rounded=0;orthogonalLoop=1;jettySize=auto;html=1;" edge="1" parent="1" source="t__9qSG3ZlEFDjJ1lAGB-43" target="t__9qSG3ZlEFDjJ1lAGB-38">
          <mxGeometry relative="1" as="geometry" />
        </mxCell>
        <mxCell id="t__9qSG3ZlEFDjJ1lAGB-43" value="" style="verticalLabelPosition=bottom;sketch=0;aspect=fixed;html=1;verticalAlign=top;strokeColor=none;align=center;outlineConnect=0;shape=mxgraph.citrix.proxy_server;" vertex="1" parent="1">
          <mxGeometry x="1014.5" y="323.75" width="76.5" height="90" as="geometry" />
        </mxCell>
        <mxCell id="t__9qSG3ZlEFDjJ1lAGB-44" value="" style="edgeStyle=orthogonalEdgeStyle;rounded=0;orthogonalLoop=1;jettySize=auto;html=1;" edge="1" parent="1" source="t__9qSG3ZlEFDjJ1lAGB-45" target="t__9qSG3ZlEFDjJ1lAGB-48">
          <mxGeometry relative="1" as="geometry" />
        </mxCell>
        <mxCell id="t__9qSG3ZlEFDjJ1lAGB-45" value="" style="verticalLabelPosition=bottom;sketch=0;aspect=fixed;html=1;verticalAlign=top;strokeColor=none;align=center;outlineConnect=0;shape=mxgraph.citrix.proxy_server;" vertex="1" parent="1">
          <mxGeometry x="1188" y="323.75" width="76.5" height="90" as="geometry" />
        </mxCell>
        <mxCell id="t__9qSG3ZlEFDjJ1lAGB-46" value="" style="edgeStyle=orthogonalEdgeStyle;rounded=0;orthogonalLoop=1;jettySize=auto;html=1;" edge="1" parent="1" source="t__9qSG3ZlEFDjJ1lAGB-47" target="t__9qSG3ZlEFDjJ1lAGB-49">
          <mxGeometry relative="1" as="geometry" />
        </mxCell>
        <mxCell id="t__9qSG3ZlEFDjJ1lAGB-47" value="" style="verticalLabelPosition=bottom;sketch=0;aspect=fixed;html=1;verticalAlign=top;strokeColor=none;align=center;outlineConnect=0;shape=mxgraph.citrix.proxy_server;" vertex="1" parent="1">
          <mxGeometry x="1293.5" y="323.75" width="76.5" height="90" as="geometry" />
        </mxCell>
        <mxCell id="t__9qSG3ZlEFDjJ1lAGB-48" value="" style="verticalLabelPosition=bottom;aspect=fixed;html=1;verticalAlign=top;strokeColor=none;shape=mxgraph.citrix.xenapp_server;fillColor=#66B2FF;gradientColor=#0066CC;fontSize=14;" vertex="1" parent="1">
          <mxGeometry x="1188" y="453.75" width="76" height="89" as="geometry" />
        </mxCell>
        <mxCell id="t__9qSG3ZlEFDjJ1lAGB-49" value="" style="verticalLabelPosition=bottom;aspect=fixed;html=1;verticalAlign=top;strokeColor=none;shape=mxgraph.citrix.xenapp_server;fillColor=#66B2FF;gradientColor=#0066CC;fontSize=14;" vertex="1" parent="1">
          <mxGeometry x="1294" y="453.75" width="76" height="89" as="geometry" />
        </mxCell>
        <mxCell id="t__9qSG3ZlEFDjJ1lAGB-50" value="nginx服务器&lt;br&gt;端口：1443、8081" style="whiteSpace=wrap;html=1;" vertex="1" parent="1">
          <mxGeometry x="1080" y="273.75" width="120" height="60" as="geometry" />
        </mxCell>
        <mxCell id="t__9qSG3ZlEFDjJ1lAGB-51" value="tomcat服务器&lt;br&gt;端口：8443" style="whiteSpace=wrap;html=1;" vertex="1" parent="1">
          <mxGeometry x="1080" y="403.75" width="120" height="60" as="geometry" />
        </mxCell>
        <mxCell id="t__9qSG3ZlEFDjJ1lAGB-53" value="" style="verticalLabelPosition=bottom;sketch=0;aspect=fixed;html=1;verticalAlign=top;strokeColor=none;align=center;outlineConnect=0;shape=mxgraph.citrix.cache_server;" vertex="1" parent="1">
          <mxGeometry x="69" y="613.75" width="71" height="97.5" as="geometry" />
        </mxCell>
        <mxCell id="t__9qSG3ZlEFDjJ1lAGB-54" value="" style="verticalLabelPosition=bottom;sketch=0;aspect=fixed;html=1;verticalAlign=top;strokeColor=none;align=center;outlineConnect=0;shape=mxgraph.citrix.cache_server;" vertex="1" parent="1">
          <mxGeometry x="163.5" y="620" width="71" height="97.5" as="geometry" />
        </mxCell>
        <mxCell id="t__9qSG3ZlEFDjJ1lAGB-55" value="" style="verticalLabelPosition=bottom;sketch=0;aspect=fixed;html=1;verticalAlign=top;strokeColor=none;align=center;outlineConnect=0;shape=mxgraph.citrix.cache_server;" vertex="1" parent="1">
          <mxGeometry x="260" y="620" width="71" height="97.5" as="geometry" />
        </mxCell>
        <mxCell id="t__9qSG3ZlEFDjJ1lAGB-72" value="" style="rounded=0;whiteSpace=wrap;html=1;fillColor=#dae8fc;strokeColor=#6c8ebf;" vertex="1" parent="1">
          <mxGeometry x="1308" y="640" width="260" height="200" as="geometry" />
        </mxCell>
        <mxCell id="t__9qSG3ZlEFDjJ1lAGB-73" value="" style="verticalLabelPosition=bottom;sketch=0;aspect=fixed;html=1;verticalAlign=top;strokeColor=#d79b00;align=center;outlineConnect=0;shape=mxgraph.citrix.database;fillColor=#ffe6cc;" vertex="1" parent="1">
          <mxGeometry x="1352" y="690" width="42.5" height="50" as="geometry" />
        </mxCell>
        <mxCell id="t__9qSG3ZlEFDjJ1lAGB-74" value="" style="verticalLabelPosition=bottom;sketch=0;aspect=fixed;html=1;verticalAlign=top;strokeColor=#d79b00;align=center;outlineConnect=0;shape=mxgraph.citrix.database;fillColor=#ffe6cc;" vertex="1" parent="1">
          <mxGeometry x="1416.75" y="668.75" width="42.5" height="50" as="geometry" />
        </mxCell>
        <mxCell id="t__9qSG3ZlEFDjJ1lAGB-75" value="" style="verticalLabelPosition=bottom;sketch=0;aspect=fixed;html=1;verticalAlign=top;strokeColor=#d79b00;align=center;outlineConnect=0;shape=mxgraph.citrix.database;fillColor=#ffe6cc;" vertex="1" parent="1">
          <mxGeometry x="1478" y="688.75" width="42.5" height="50" as="geometry" />
        </mxCell>
        <mxCell id="t__9qSG3ZlEFDjJ1lAGB-76" value="PG 集群&lt;br&gt;端口：5432" style="whiteSpace=wrap;html=1;" vertex="1" parent="1">
          <mxGeometry x="1378" y="758.75" width="120" height="60" as="geometry" />
        </mxCell>
        <mxCell id="t__9qSG3ZlEFDjJ1lAGB-77" value="" style="verticalLabelPosition=bottom;sketch=0;aspect=fixed;html=1;verticalAlign=top;strokeColor=none;align=center;outlineConnect=0;shape=mxgraph.citrix.cache_server;" vertex="1" parent="1">
          <mxGeometry x="50" y="573.75" width="71" height="97.5" as="geometry" />
        </mxCell>
        <mxCell id="t__9qSG3ZlEFDjJ1lAGB-78" value="" style="verticalLabelPosition=bottom;sketch=0;aspect=fixed;html=1;verticalAlign=top;strokeColor=none;align=center;outlineConnect=0;shape=mxgraph.citrix.cache_server;" vertex="1" parent="1">
          <mxGeometry x="150" y="573.75" width="71" height="97.5" as="geometry" />
        </mxCell>
        <mxCell id="t__9qSG3ZlEFDjJ1lAGB-79" value="" style="verticalLabelPosition=bottom;sketch=0;aspect=fixed;html=1;verticalAlign=top;strokeColor=none;align=center;outlineConnect=0;shape=mxgraph.citrix.cache_server;" vertex="1" parent="1">
          <mxGeometry x="240" y="573.75" width="71" height="97.5" as="geometry" />
        </mxCell>
        <mxCell id="t__9qSG3ZlEFDjJ1lAGB-80" value="redis 集群&lt;br&gt;端口：6379" style="whiteSpace=wrap;html=1;" vertex="1" parent="1">
          <mxGeometry x="124.5" y="750" width="120" height="60" as="geometry" />
        </mxCell>
        <mxCell id="t__9qSG3ZlEFDjJ1lAGB-81" value="" style="verticalLabelPosition=bottom;sketch=0;aspect=fixed;html=1;verticalAlign=top;strokeColor=none;align=center;outlineConnect=0;shape=mxgraph.citrix.cache_server;" vertex="1" parent="1">
          <mxGeometry x="79" y="623.75" width="71" height="97.5" as="geometry" />
        </mxCell>
        <mxCell id="t__9qSG3ZlEFDjJ1lAGB-82" value="" style="verticalLabelPosition=bottom;sketch=0;aspect=fixed;html=1;verticalAlign=top;strokeColor=none;align=center;outlineConnect=0;shape=mxgraph.citrix.cache_server;" vertex="1" parent="1">
          <mxGeometry x="173.5" y="630" width="71" height="97.5" as="geometry" />
        </mxCell>
        <mxCell id="t__9qSG3ZlEFDjJ1lAGB-83" value="" style="verticalLabelPosition=bottom;sketch=0;aspect=fixed;html=1;verticalAlign=top;strokeColor=none;align=center;outlineConnect=0;shape=mxgraph.citrix.cache_server;" vertex="1" parent="1">
          <mxGeometry x="270" y="630" width="71" height="97.5" as="geometry" />
        </mxCell>
        <mxCell id="t__9qSG3ZlEFDjJ1lAGB-84" value="" style="rounded=0;whiteSpace=wrap;html=1;fillColor=#d5e8d4;strokeColor=#82b366;" vertex="1" parent="1">
          <mxGeometry x="790" y="637.19" width="350" height="285.62" as="geometry" />
        </mxCell>
        <mxCell id="t__9qSG3ZlEFDjJ1lAGB-85" value="" style="verticalLabelPosition=bottom;sketch=0;aspect=fixed;html=1;verticalAlign=top;strokeColor=none;align=center;outlineConnect=0;shape=mxgraph.citrix.cache_server;" vertex="1" parent="1">
          <mxGeometry x="829.5" y="666.56" width="71" height="97.5" as="geometry" />
        </mxCell>
        <mxCell id="t__9qSG3ZlEFDjJ1lAGB-86" value="" style="verticalLabelPosition=bottom;sketch=0;aspect=fixed;html=1;verticalAlign=top;strokeColor=none;align=center;outlineConnect=0;shape=mxgraph.citrix.cache_server;" vertex="1" parent="1">
          <mxGeometry x="929.5" y="666.56" width="71" height="97.5" as="geometry" />
        </mxCell>
        <mxCell id="t__9qSG3ZlEFDjJ1lAGB-87" value="" style="verticalLabelPosition=bottom;sketch=0;aspect=fixed;html=1;verticalAlign=top;strokeColor=none;align=center;outlineConnect=0;shape=mxgraph.citrix.cache_server;" vertex="1" parent="1">
          <mxGeometry x="1019.5" y="666.56" width="71" height="97.5" as="geometry" />
        </mxCell>
        <mxCell id="t__9qSG3ZlEFDjJ1lAGB-88" value="redis 集群&lt;br&gt;端口：6379" style="whiteSpace=wrap;html=1;" vertex="1" parent="1">
          <mxGeometry x="904" y="842.81" width="120" height="60" as="geometry" />
        </mxCell>
        <mxCell id="t__9qSG3ZlEFDjJ1lAGB-89" value="" style="verticalLabelPosition=bottom;sketch=0;aspect=fixed;html=1;verticalAlign=top;strokeColor=none;align=center;outlineConnect=0;shape=mxgraph.citrix.cache_server;" vertex="1" parent="1">
          <mxGeometry x="858.5" y="716.56" width="71" height="97.5" as="geometry" />
        </mxCell>
        <mxCell id="t__9qSG3ZlEFDjJ1lAGB-90" value="" style="verticalLabelPosition=bottom;sketch=0;aspect=fixed;html=1;verticalAlign=top;strokeColor=none;align=center;outlineConnect=0;shape=mxgraph.citrix.cache_server;" vertex="1" parent="1">
          <mxGeometry x="953" y="722.81" width="71" height="97.5" as="geometry" />
        </mxCell>
        <mxCell id="t__9qSG3ZlEFDjJ1lAGB-91" value="" style="verticalLabelPosition=bottom;sketch=0;aspect=fixed;html=1;verticalAlign=top;strokeColor=none;align=center;outlineConnect=0;shape=mxgraph.citrix.cache_server;" vertex="1" parent="1">
          <mxGeometry x="1049.5" y="722.81" width="71" height="97.5" as="geometry" />
        </mxCell>
        <mxCell id="t__9qSG3ZlEFDjJ1lAGB-92" value="" style="verticalLabelPosition=bottom;sketch=0;aspect=fixed;html=1;verticalAlign=top;strokeColor=none;align=center;outlineConnect=0;shape=mxgraph.citrix.cache_server;" vertex="1" parent="1">
          <mxGeometry x="839.5" y="676.56" width="71" height="97.5" as="geometry" />
        </mxCell>
        <mxCell id="t__9qSG3ZlEFDjJ1lAGB-93" value="" style="verticalLabelPosition=bottom;sketch=0;aspect=fixed;html=1;verticalAlign=top;strokeColor=none;align=center;outlineConnect=0;shape=mxgraph.citrix.cache_server;" vertex="1" parent="1">
          <mxGeometry x="939.5" y="676.56" width="71" height="97.5" as="geometry" />
        </mxCell>
        <mxCell id="t__9qSG3ZlEFDjJ1lAGB-94" value="" style="verticalLabelPosition=bottom;sketch=0;aspect=fixed;html=1;verticalAlign=top;strokeColor=none;align=center;outlineConnect=0;shape=mxgraph.citrix.cache_server;" vertex="1" parent="1">
          <mxGeometry x="1029.5" y="676.56" width="71" height="97.5" as="geometry" />
        </mxCell>
        <mxCell id="t__9qSG3ZlEFDjJ1lAGB-95" value="redis 集群&lt;br&gt;端口：6379" style="whiteSpace=wrap;html=1;" vertex="1" parent="1">
          <mxGeometry x="914" y="852.81" width="120" height="60" as="geometry" />
        </mxCell>
        <mxCell id="t__9qSG3ZlEFDjJ1lAGB-96" value="" style="verticalLabelPosition=bottom;sketch=0;aspect=fixed;html=1;verticalAlign=top;strokeColor=none;align=center;outlineConnect=0;shape=mxgraph.citrix.cache_server;" vertex="1" parent="1">
          <mxGeometry x="868.5" y="726.56" width="71" height="97.5" as="geometry" />
        </mxCell>
        <mxCell id="t__9qSG3ZlEFDjJ1lAGB-97" value="" style="verticalLabelPosition=bottom;sketch=0;aspect=fixed;html=1;verticalAlign=top;strokeColor=none;align=center;outlineConnect=0;shape=mxgraph.citrix.cache_server;" vertex="1" parent="1">
          <mxGeometry x="963" y="732.81" width="71" height="97.5" as="geometry" />
        </mxCell>
        <mxCell id="t__9qSG3ZlEFDjJ1lAGB-98" value="" style="verticalLabelPosition=bottom;sketch=0;aspect=fixed;html=1;verticalAlign=top;strokeColor=none;align=center;outlineConnect=0;shape=mxgraph.citrix.cache_server;" vertex="1" parent="1">
          <mxGeometry x="1059.5" y="732.81" width="71" height="97.5" as="geometry" />
        </mxCell>
        <mxCell id="t__9qSG3ZlEFDjJ1lAGB-106" value="流复制" style="whiteSpace=wrap;html=1;" vertex="1" parent="1">
          <mxGeometry x="1179.13" y="676.56" width="93.75" height="38.75" as="geometry" />
        </mxCell>
      </root>
    </mxGraphModel>
  </diagram>
</mxfile>
